trial_1_IK.mot
nRows=5
nColumns=42

name trial_1_IK.mot
datacolumns 42
datarows 5
range 2.3900000000 2.4300000000
endheader
time	pelvis_tilt	pelvis_list	pelvis_rotation	pelvis_tx	pelvis_ty	pelvis_tz	hip_flexion_r	hip_adduction_r	hip_rotation_r	knee_angle_r	knee_vv_r	knee_rot_r	ankle_angle_r	subtalar_angle_r	mtp_angle_r	hip_flexion_l	hip_adduction_l	hip_rotation_l	knee_angle_l	knee_vv_l	knee_rot_l	ankle_angle_l	subtalar_angle_l	mtp_angle_l	lumbar_extension	lumbar_bending	lumbar_rotation	arm_flex_r	arm_add_r	arm_rot_r	elbow_flex_r	pro_sup_r	wrist_flex_r	wrist_dev_r	arm_flex_l	arm_add_l	arm_rot_l	elbow_flex_l	pro_sup_l	wrist_flex_l	wrist_dev_l
        2.3900000000	       10.5180746000	       -0.5765118400	       -3.1509526500	        0.0574425900	        0.8966379200	        0.0167382200	      -21.5855428200	        2.2136216900	        4.4929839800	      -10.7356112200	        0.0000000000	        0.0000000000	       17.4012720300	        0.0000000000	        0.0000000000	       10.3702123500	        0.1676824800	       -4.6894467300	       -4.3035349400	        0.0000000000	        0.0000000000	       -5.2806439900	        0.0000000000	        0.0000000000	      -24.6335657500	       -2.3406831300	        6.9000705500	       25.3007880200	      -18.0917449500	       24.0800821500	       30.3142233900	       86.5166270600	        0.0000000000	        0.0000000000	       -2.0729872200	       -9.2056336300	       41.5733263800	        1.4618454700	       85.9436692700	        0.0000000000	        0.0000000000	
        2.4000000000	       10.7943729000	       -0.3481878800	       -3.1523585000	        0.0590835200	        0.8957820200	        0.0152573400	      -22.4255609300	        1.7962437700	        4.1641035900	      -11.0126665700	        0.0000000000	        0.0000000000	       17.2624224100	        0.0000000000	        0.0000000000	       10.2289597900	        0.5469511100	       -5.0229396200	       -5.4407342100	        0.0000000000	        0.0000000000	       -6.3542866900	        0.0000000000	        0.0000000000	      -24.7958163200	       -2.5539182800	        6.5590826500	       24.7895974600	      -17.7911089100	       24.0005837000	       29.8856764300	       86.5166270600	        0.0000000000	        0.0000000000	       -1.7283183800	       -9.3681372200	       41.9351899900	        1.4903200800	       85.9436692700	        0.0000000000	        0.0000000000	
        2.4100000000	       11.0839046500	       -0.0288521300	       -3.1273100800	        0.0607247500	        0.8952687900	        0.0136097300	      -23.2048078000	        1.2905108900	        3.7723406800	      -11.4120113200	        0.0000000000	        0.0000000000	       17.0167952700	        0.0000000000	        0.0000000000	       10.0539391600	        1.0159734900	       -5.3732829500	       -6.4615331800	        0.0000000000	        0.0000000000	       -7.5006101900	        0.0000000000	        0.0000000000	      -24.9798434200	       -2.8587828200	        6.1774145200	       24.2480272100	      -17.4756000300	       23.9734900900	       29.3773073800	       86.5166270600	        0.0000000000	        0.0000000000	       -1.3231811800	       -9.5519375700	       42.3250886400	        1.5414672500	       85.9436692700	        0.0000000000	        0.0000000000	
        2.4200000000	       11.3701584300	        0.3802698500	       -3.0760432400	        0.0623819600	        0.8951764300	        0.0117479000	      -23.8915341300	        0.7039547800	        3.3355854700	      -11.9675190100	        0.0000000000	        0.0000000000	       16.6553700700	        0.0000000000	        0.0000000000	        9.8383699500	        1.5702173400	       -5.7060142400	       -7.4135917500	        0.0000000000	        0.0000000000	       -8.5441983100	        0.0000000000	        0.0000000000	      -25.1699347500	       -3.2524934700	        5.7748816200	       23.6760521200	      -17.1475015700	       24.0274486600	       28.7736408600	       86.5166270600	        0.0000000000	        0.0000000000	       -0.8512570600	       -9.7513613400	       42.7668273300	        1.6045938700	       85.9436692700	        0.0000000000	        0.0000000000	
        2.4300000000	       11.6433088100	        0.8631018800	       -3.0122348600	        0.0640546300	        0.8953926100	        0.0097907000	      -24.4624225600	        0.0577343100	        2.8682766200	      -12.7088702700	        0.0000000000	        0.0000000000	       16.1657624600	        0.0000000000	        0.0000000000	        9.5852338500	        2.1914051400	       -5.9925990600	       -8.3734130500	        0.0000000000	        0.0000000000	       -9.3212978900	        0.0000000000	        0.0000000000	      -25.3599159900	       -3.7079722900	        5.3642934700	       23.0540915600	      -16.8268375900	       24.1949528200	       28.0507291100	       86.5166270600	        0.0000000000	        0.0000000000	       -0.3121798500	       -9.9602765500	       43.2732091700	        1.6678131900	       85.9436692700	        0.0000000000	        0.0000000000	
